# xmcd
#
# Track frame offsets:
#	150
#	18522
#	37967
#	57642
#	77130
#	99597
#	118547
#	141337
#	162870
#	186920
#	208547
#	230432
#
# Disc length: 3314 seconds
#
# Revision: 1
# Processed by: cddbd v1.5PL3 Copyright (c) Steve Scherf et al.
# Submitted via: CDex 1.50Beta5
#
DISCID=a20cf00c
DTITLE=榎本温子 - Touch My Heart
DYEAR=2002
DGENRE=Pop
TTITLE0=Be My Angel
TTITLE1=My FAVORITE
TTITLE2=Keep on Going
TTITLE3=FLY YOUR SKY
TTITLE4=Take your wings
TTITLE5=Other side of love,The
TTITLE6=Difference
TTITLE7=輝きの向こう
TTITLE8=Love Forever(Solo Version)
TTITLE9=Take your wings(Unplugged Version)
TTITLE10=Be My Angel(Summer End Remix)
TTITLE11=HAPPY!SMILE!HELLO!
EXTD=
EXTT0=
EXTT1=
EXTT2=
EXTT3=
EXTT4=
EXTT5=
EXTT6=
EXTT7=
EXTT8=
EXTT9=
EXTT10=
EXTT11=
PLAYORDER=
